<?xml version="1.0" standalone="no"?>
<!DOCTYPE svg PUBLIC "-//W3C//DTD SVG 1.1//EN" "http://www.w3.org/Graphics/SVG/1.1/DTD/svg11.dtd" >
<svg xmlns="http://www.w3.org/2000/svg">
  <metadata>Created by iconfont</metadata>
  <defs>
  <font id="iconfont" horiz-adv-x="1024">
    <font-face
      font-family="iconfont"
      font-weight="400"
      font-stretch="normal"
      units-per-em="1024"
      ascent="896"
      descent="-128"
    />
      <missing-glyph />
      
      <glyph glyph-name="youxiang" unicode="&#58885;" d="M887.044 628.806H135.36c-39.56 0-71.631-32.07-71.631-71.632v-463.536c0-39.561 32.07-71.632 71.631-71.632h751.685c39.561 0 71.632 32.07 71.632 71.632V557.174c0 39.562-32.07 71.632-71.632 71.632z m12.733-100.255v-406.715c0-0.039-0.003-0.077-0.003-0.116L683.68 315.662l216.097 212.89zM383.103 275.384c70.996-50.776 191.38-54.63 258.105-0.748L857.07 80.905H166.406l216.697 194.48z m471.412 294.523l-218.34-215.055c-77.786-80.175-179.434-75.4-252.906 1.627L171.962 569.907h682.553z m-731.889-40.932c0 2.023 0.153 4.01 0.436 5.953l216.892-219.127-217.3-195.023c-0.01 0.353-0.027 0.704-0.027 1.058V528.975z"  horiz-adv-x="1024" />
      
      <glyph glyph-name="GitHub" unicode="&#59914;" d="M524.979332 896C234.676191 896 0 661.323809 0 371.020668c0-232.068678 150.366597-428.501342 358.967656-498.035028 26.075132-5.215026 35.636014 11.299224 35.636014 25.205961 0 12.168395-0.869171 53.888607-0.869171 97.347161-146.020741-31.290159-176.441729 62.580318-176.441729 62.580318-23.467619 60.841976-58.234462 76.487055-58.234463 76.487055-47.804409 32.15933 3.476684 32.15933 3.476685 32.15933 53.019436-3.476684 80.83291-53.888607 80.83291-53.888607 46.935238-79.963739 122.553122-57.365291 152.97411-43.458554 4.345855 33.897672 18.252593 57.365291 33.028501 70.402857-116.468925 12.168395-239.022047 57.365291-239.022047 259.012982 0 57.365291 20.860106 104.300529 53.888607 140.805715-5.215026 13.037566-23.467619 66.926173 5.215027 139.067372 0 0 44.327725 13.906737 144.282399-53.888607 41.720212 11.299224 86.917108 17.383422 131.244833 17.383422s89.524621-6.084198 131.244833-17.383422C756.178839 692.613968 800.506564 678.70723 800.506564 678.70723c28.682646-72.1412 10.430053-126.029806 5.215026-139.067372 33.897672-36.505185 53.888607-83.440424 53.888607-140.805715 0-201.64769-122.553122-245.975415-239.891218-259.012982 19.121764-16.514251 35.636014-47.804409 35.636015-97.347161 0-70.402857-0.869171-126.898978-0.869172-144.282399 0-13.906737 9.560882-30.420988 35.636015-25.205961 208.601059 69.533686 358.967656 265.96635 358.967655 498.035028C1049.958663 661.323809 814.413301 896 524.979332 896zM199.040177 142.428674c-0.869171-2.607513-5.215026-3.476684-8.691711-1.738342s-6.084198 5.215026-4.345855 7.82254c0.869171 2.607513 5.215026 3.476684 8.691711 1.738342s5.215026-5.215026 4.345855-7.82254z m-6.953369 4.345856M219.900283 118.961055c-2.607513-2.607513-7.82254-0.869171-10.430053 2.607514-3.476684 3.476684-4.345855 8.691711-1.738342 11.299224 2.607513 2.607513 6.953369 0.869171 10.430053-2.607514 3.476684-4.345855 4.345855-9.560882 1.738342-11.299224z m-5.215026 5.215027M240.760389 88.540068c-3.476684-2.607513-8.691711 0-11.299224 4.345855-3.476684 4.345855-3.476684 10.430053 0 12.168395 3.476684 2.607513 8.691711 0 11.299224-4.345855 3.476684-4.345855 3.476684-9.560882 0-12.168395z m0 0M269.443034 58.988251c-2.607513-3.476684-8.691711-2.607513-13.906737 1.738342-4.345855 4.345855-6.084198 10.430053-2.607513 13.037566 2.607513 3.476684 8.691711 2.607513 13.906737-1.738342 4.345855-3.476684 5.215026-9.560882 2.607513-13.037566z m0 0M308.555733 42.474c-0.869171-4.345855-6.953369-6.084198-13.037566-4.345855-6.084198 1.738342-9.560882 6.953369-8.691711 10.430053 0.869171 4.345855 6.953369 6.084198 13.037566 4.345855 6.084198-1.738342 9.560882-6.084198 8.691711-10.430053z m0 0M351.145116 38.997316c0-4.345855-5.215026-7.82254-11.299224-7.82254-6.084198 0-11.299224 3.476684-11.299224 7.82254s5.215026 7.82254 11.299224 7.82254c6.084198 0 11.299224-3.476684 11.299224-7.82254z m0 0M391.126986 45.950685c0.869171-4.345855-3.476684-8.691711-9.560882-9.560882-6.084198-0.869171-11.299224 1.738342-12.168395 6.084197-0.869171 4.345855 3.476684 8.691711 9.560881 9.560882 6.084198 0.869171 11.299224-1.738342 12.168396-6.084197z m0 0"  horiz-adv-x="1049" />
      
      <glyph glyph-name="qq" unicode="&#59210;" d="M507.213265-36.78109c0-49.673664-72.613865-89.954489-162.02646-89.954489s-162.387723 40.461457-162.387722 89.954489c0 49.673664 72.613865 89.773858 162.026459 89.773858 89.773858 0 162.387723-40.100194 162.387723-89.773858z m175.031928 89.773858c-89.593226 0-162.02646-40.280826-162.02646-89.95449 0-49.673664 72.613865-89.954489 162.02646-89.954489 89.593226 0 162.02646 40.280826 162.02646 89.954489 0 49.854295-72.613865 89.954489-162.02646 89.95449zM872.088905 394.747575s-12.282942 12.282942-25.288411 24.385253v143.060151c0 118.85553-63.221027 228.679485-166.542247 288.287882-102.959958 59.608397-229.763274 59.608397-332.723232 0-102.959958-59.247134-166.542247-169.25172-166.542247-288.287882V419.132828c-13.366731-12.282942-25.469042-24.385253-25.469042-24.385253-21.495149-33.055565-73.336391-117.049215-73.336391-196.527078s21.675781-93.025225 29.804198-93.567119c8.128418-0.541895 35.584406 6.863997 68.639972 58.343976 45.157876-149.743517 177.018875-258.303052 332.903863-258.303052s288.10725 108.378903 332.723231 257.941789c33.416828-51.66061 61.595343-59.066502 69.181867-58.524607 7.586523 0.903158 29.804198 14.269889 29.804198 93.567119S893.584054 361.330746 871.908273 393.844417l0.180632 0.903158zM269.321573 337.668019c-2.528841-19.508203-3.793262-38.835774-3.61263-58.524607 0-181.715294 113.255953-329.471865 253.064738-329.471865s253.064738 147.214676 253.064738 329.471865c0 19.508203-1.264421 39.016405-3.973893 58.524607h-498.542953z m157.14941 404.975834c-36.487564 0-67.014288-40.82272-67.014289-91.038279s30.165461-91.038278 67.014289-91.038278c37.029458 0 67.014288 40.82272 67.014288 91.038278s-29.98483 91.038278-67.014288 91.038279z m11.199153-128.067737c-13.547363 0-24.385253 16.79873-24.385253 37.390721s11.018522 37.390721 24.385253 37.390722c13.547363 0 24.385253-16.79873 24.385253-37.390722-0.180632-20.591992-11.018522-37.390721-24.385253-37.390721z m165.819721 128.067737c-36.487564 0-67.014288-40.82272-67.014288-91.038279s30.165461-91.038278 67.014288-91.038278 67.014288 40.82272 67.014288 91.038278-29.804198 91.038278-67.014288 91.038279z m11.560416-94.470277c0-1.083789-0.903158-1.806315-1.806315-1.806315s-1.445052 0.361263-1.625683 1.445052c-2.709473 9.57347-10.657259 16.437467-20.591992 17.701887-9.754101-1.445052-17.701887-8.489681-20.050097-18.243782-0.180632-0.541895-0.903158-1.083789-1.625683-1.083789-1.083789 0-1.806315 0.903158-1.806315 1.806315v2.890104c0 20.591992 11.018522 37.390721 24.385253 37.390722 13.547363 0 24.385253-16.79873 24.385253-37.390722v-3.070735l-1.264421 0.361263zM250.355265 355.73117c-6.141471-30.526724-18.966308-167.626036-13.005468-197.97213 6.141471-30.526724 31.791145-25.288411 68.45934-25.649673s77.310284-10.115364 77.852179 34.681249c0.541895 44.615982 0.903158 133.125419 10.83789 165.639089 10.476627 32.333039-144.143941 23.301464-144.143941 23.301465zM242.226848 290.342565l143.240783-46.422297c0 29.623567 3.070736 59.066502 9.392838 87.967543 10.115364 32.513671-144.505204 23.843359-144.505204 23.843359-1.986947-11.018522-5.057682-36.487564-8.128417-65.388605zM514.438525 433.944611c111.810901 0 202.487917 40.82272 202.487917 65.749868 0 18.966308-90.677015 38.655142-202.307285 38.655142s-202.307285-17.701887-202.307285-38.655142c0-23.843359 90.677015-65.749868 202.307285-65.749868h-0.180632zM516.606103 409.378726s128.248368-1.445052 230.666432 42.267773c102.418063 43.532193 101.514906 48.951138 112.533427 48.951137 11.018522 0 24.385253-16.076204 30.165462-45.157876 5.599577-29.081672 12.282942-52.021873-12.282943-66.291762-24.385253-14.269889-180.631505-106.391956-357.289116-106.391956h-8.850944c-176.657612 0-333.445758 92.122067-357.289116 106.391956-24.02399 13.908626-17.340624 36.487564-12.282942 66.291762 5.057682 29.623567 18.785676 45.157876 29.804198 45.157876 11.199153 0 10.115364-4.877051 112.533427-48.951137 102.598695-43.893456 230.666431-42.267772 230.666432-42.267773h1.625683z"  horiz-adv-x="1024" />
      
      <glyph glyph-name="weixin" unicode="&#58887;" d="M337.387283 554.17341c-17.757225 0-35.514451-11.83815-35.514451-29.595375s17.757225-29.595376 35.514451-29.595376 29.595376 11.83815 29.595376 29.595376c0 18.49711-11.83815 29.595376-29.595376 29.595375zM577.849711 382.520231c-11.83815 0-22.936416-12.578035-22.936416-23.6763 0-12.578035 11.83815-23.676301 22.936416-23.676301 17.757225 0 29.595376 11.83815 29.595376 23.676301s-11.83815 23.676301-29.595376 23.6763zM501.641618 494.982659c17.757225 0 29.595376 12.578035 29.595376 29.595376 0 17.757225-11.83815 29.595376-29.595376 29.595375s-35.514451-11.83815-35.51445-29.595375 17.757225-29.595376 35.51445-29.595376zM706.589595 382.520231c-11.83815 0-22.936416-12.578035-22.936416-23.6763 0-12.578035 11.83815-23.676301 22.936416-23.676301 17.757225 0 29.595376 11.83815 29.595376 23.676301s-11.83815 23.676301-29.595376 23.6763zM510.520231 893.040462C228.624277 893.040462 0 664.416185 0 382.520231s228.624277-510.520231 510.520231-510.520231 510.520231 228.624277 510.520231 510.520231-228.624277 510.520231-510.520231 510.520231zM413.595376 251.560694c-29.595376 0-53.271676 5.919075-81.387284 12.578034l-81.387283-41.433526 22.936416 71.768786c-58.450867 41.433526-93.965318 95.445087-93.965317 159.815029 0 113.202312 105.803468 201.988439 233.803468 201.98844 114.682081 0 216.046243-71.028902 236.023121-166.473989-7.398844 0.739884-14.797688 1.479769-22.196532 1.479769-110.982659-1.479769-198.289017-85.086705-198.289017-188.67052 0-17.017341 2.959538-33.294798 7.398844-49.572255-7.398844-0.739884-15.537572-1.479769-22.936416-1.479768z m346.265896-82.867052l17.757225-59.190752-63.630058 35.514451c-22.936416-5.919075-46.612717-11.83815-70.289017-11.83815-111.722543 0-199.768786 76.947977-199.768786 172.393063-0.739884 94.705202 87.306358 171.653179 198.289017 171.65318 105.803468 0 199.028902-77.687861 199.028902-172.393064 0-53.271676-34.774566-100.624277-81.387283-136.138728z"  horiz-adv-x="1024" />
      
      <glyph glyph-name="ic_jiemuku_narmol" unicode="&#58881;" d="M366.336 354.88c64.32 0 116.48-52.224 116.48-116.544v-136a116.544 116.544 0 0 0-116.48-116.544H230.336a116.544 116.544 0 0 0-116.544 116.48v136.064c0 64.32 52.16 116.48 116.48 116.48h136.064z m427.328 0c64.384 0 116.544-52.224 116.544-116.544v-136a116.544 116.544 0 0 0-116.48-116.544h-136.064a116.544 116.544 0 0 0-116.48 116.48v136.064c0 64.32 52.16 116.48 116.48 116.48h136zM366.336 782.208c64.32 0 116.48-52.16 116.48-116.48v-136.064a116.544 116.544 0 0 0-116.48-116.48H230.336a116.544 116.544 0 0 0-116.544 116.48V665.664c0 64.384 52.16 116.544 116.48 116.544h136.064z m427.328 0c64.384 0 116.544-52.16 116.544-116.48v-136.064a116.544 116.544 0 0 0-116.48-116.48h-136.064a116.544 116.544 0 0 0-116.48 116.48V665.664c0 64.384 52.16 116.544 116.48 116.544h136z m0-58.24h-136a58.24 58.24 0 0 1-58.176-54.848l-0.064-3.456v-136c0-30.848 24.064-56.32 54.848-58.176l3.392-0.064h136a58.24 58.24 0 0 1 58.24 54.848V665.664a58.24 58.24 0 0 1-54.784 58.24H793.6z"  horiz-adv-x="1024" />
      
      <glyph glyph-name="aside_pricetag_mubanguanli_normal" unicode="&#58882;" d="M283.456 164.544a64 64 0 0 0 64-64V64a64 64 0 0 0-64-64H192a64 64 0 0 0-64 64v36.544a64 64 0 0 0 64 64h91.456z m548.544 0a64 64 0 0 0 64-64V64a64 64 0 0 0-64-64H466.304a64 64 0 0 0-64 64v36.544a64 64 0 0 0 64 64H832z m0 329.152a64 64 0 0 0 64-64V283.52a64 64 0 0 0-64-64H466.304a64 64 0 0 0-64 64V429.696a64 64 0 0 0 64 64H832z m-548.544 0a64 64 0 0 0 64-64V283.52a64 64 0 0 0-64-64H192a64 64 0 0 0-64 64V429.696a64 64 0 0 0 64 64h91.456zM832 768a64 64 0 0 0 64-64v-91.456a64 64 0 0 0-64-64H192a64 64 0 0 0-64 64V704a64 64 0 0 0 64 64h640z"  horiz-adv-x="1024" />
      
      <glyph glyph-name="aside_statistics_broadcast_normal" unicode="&#58883;" d="M768 768a128 128 0 0 0 128-128v-512a128 128 0 0 0-128-128H256a128 128 0 0 0-128 128V640a128 128 0 0 0 128 128h512z m-228.544-603.456a27.456 27.456 0 0 1-27.456-27.392v-54.848a27.456 27.456 0 1 1 54.848 0v54.848a27.456 27.456 0 0 1-27.392 27.392z m109.696 54.912a27.456 27.456 0 0 1-27.456-27.456v-109.696a27.456 27.456 0 1 1 54.848 0V192a27.456 27.456 0 0 1-27.392 27.456z m109.696 54.848a27.456 27.456 0 0 1-27.392-27.456v-164.544a27.456 27.456 0 0 1 54.848 0v164.544a27.456 27.456 0 0 1-27.456 27.456zM466.304 536.448a64 64 0 0 1-63.616-56.512l-0.384-7.488v-122.048a64 64 0 0 1 85.76-60.16l6.848 2.944 122.048 60.992a64 64 0 0 1 6.464 110.72l-6.464 3.776-122.048 60.992a64 64 0 0 1-28.608 6.784z"  horiz-adv-x="1024" />
      
      <glyph glyph-name="kafei_1" unicode="&#59081;" d="M171.52-27.4432a69.9392 69.9392 0 1 0 69.888 69.9392 69.9904 69.9904 0 0 0-69.888-69.9392z m0 104.0384a34.0992 34.0992 0 1 1 34.048-34.0992 34.0992 34.0992 0 0 1-34.048 34.304zM868.1984 743.0656m-34.6624 0a34.6624 34.6624 0 1 1 69.3248 0 34.6624 34.6624 0 1 1-69.3248 0ZM687.616-10.8032h96.0512a15.36 15.36 0 0 1 0 30.72H687.616a15.36 15.36 0 0 1 0-30.72zM833.28 3.4304m-17.3568 0a17.3568 17.3568 0 1 1 34.7136 0 17.3568 17.3568 0 1 1-34.7136 0ZM730.4704 750.4896a48.896 48.896 0 0 1-43.2128 26.0608h-348.16a48.896 48.896 0 0 1-43.5712-26.7776l-41.472-81.92h520.0384zM238.1312 496.64l28.6208-415.5904a83.5072 83.5072 0 0 1 83.3024-77.7728h319.488a83.456 83.456 0 0 1 83.2 76.8L785.8688 496.64zM155.8016 668.0576m43.0592 0l626.3296 0q43.0592 0 43.0592-43.0592l0-85.1456q0-43.0592-43.0592-43.0592l-626.3296 0q-43.0592 0-43.0592 43.0592l0 85.1456q0 43.0592 43.0592 43.0592ZM719.6672 488.1408l-30.3104-399.36a29.2864 29.2864 0 0 0-29.2352-27.136H359.8336c-39.2192 0-69.5808 4.4032-83.3024 26.0096 3.4304-26.9824 15.36-79.9232 105.3696-79.9232h287.744c29.6448 0 77.2096 27.648 83.712 80.2304s27.0848 400.1792 27.0848 400.1792zM808.5504 655.36v-86.3232a13.568 13.568 0 0 0-13.568-13.568H159.5904S150.016 496.64 221.5936 496.64h587.9296c29.44 0 58.6752 13.568 58.6752 50.176V620.8512c0 21.6064-17.152 46.3872-59.648 34.5088zM656.9472 774.912l32.3072-61.7984H283.392l-21.7088-45.056h520.2432l-68.2496 110.1312-56.7296-3.2768zM825.1392 688.4864h-38.7072l-37.888 71.68a69.1712 69.1712 0 0 1-61.44 36.9664h-348.16a69.0688 69.0688 0 0 1-61.952-38.0928l-35.84-70.5536h-42.2912a63.5392 63.5392 0 0 1-63.5392-63.5392v-85.0944A63.5904 63.5904 0 0 1 198.8608 476.16h20.1728l27.2896-396.544a104.2432 104.2432 0 0 1 103.7312-96.8192h319.488A104.448 104.448 0 0 1 773.12 78.6944L804.7616 476.16h20.48a63.5904 63.5904 0 0 1 63.5392 63.5392V624.9472a63.5392 63.5392 0 0 1-63.6416 63.5392zM313.4976 740.5056a28.3648 28.3648 0 0 0 25.6 15.36h348.16a28.3648 28.3648 0 0 0 25.088-15.36l27.7504-52.4288H287.1808zM732.16 81.92a63.3344 63.3344 0 0 0-62.8224-58.0096H350.0544a63.232 63.232 0 0 0-62.8736 58.6752L260.096 476.16h503.6032z m115.3536 457.9328a22.5792 22.5792 0 0 0-22.3744-22.7328H198.8608a22.5792 22.5792 0 0 0-22.5792 22.5792V624.9472a22.528 22.528 0 0 0 22.5792 22.5792h626.2784a22.528 22.528 0 0 0 22.5792-22.5792zM512.9728 295.4752m-95.0784 0a95.0784 95.0784 0 1 1 190.1568 0 95.0784 95.0784 0 1 1-190.1568 0ZM500.3776 377.7024s61.44-33.8432 61.44-80.4352-39.0144-82.3296-97.28-83.6608c71.68-10.24 143.36 5.5296 143.36 81.92s-74.8544 91.2896-107.52 82.176zM512.9728 179.8656a115.6096 115.6096 0 1 0 115.6096 115.6096 115.712 115.712 0 0 0-115.6096-115.6096z m0 190.208a74.6496 74.6496 0 1 1 74.6496-74.5984 74.7008 74.7008 0 0 1-74.6496 74.5984zM470.6816 730.2656H351.0784a12.8 12.8 0 0 0 0 25.6h119.6032a12.8 12.8 0 1 0 0-25.6zM558.08 616.8064h-40.96a12.8 12.8 0 0 0 0 25.6h40.96a12.8 12.8 0 1 0 0-25.6zM194.56 578.56a12.8 12.8 0 0 0-12.8 12.8v21.7088a29.3888 29.3888 0 0 0 29.3376 29.3376h226.4064a12.8 12.8 0 1 0 0-25.6H210.8928a3.7376 3.7376 0 0 1-3.7376-3.7376v-21.7088A12.7488 12.7488 0 0 0 194.56 578.56zM296.96 167.4752a12.8 12.8 0 0 0-12.7488 11.776l-20.48 252.7232a12.8 12.8 0 0 0 25.6 2.0992l20.48-252.7232a12.8 12.8 0 0 0-11.7248-13.824zM454.4 269.568a12.8 12.8 0 0 0-12.6976 11.4688c-5.632 52.6336 28.1088 77.1072 46.7456 82.688a12.8 12.8 0 0 0 7.424-24.4736c-3.4816-1.1264-33.3824-12.0832-28.7232-55.5008a12.8 12.8 0 0 0-11.4688-14.08z"  horiz-adv-x="1024" />
      
      <glyph glyph-name="tupian" unicode="&#59082;" d="M903.4752 780.9024a12.9024 12.9024 0 0 1-17.0496 6.5024l-8.6016-3.8912-3.8912 8.6528a12.9024 12.9024 0 0 1-23.552-10.5472l3.8912-8.6528-8.6528-3.84a12.9024 12.9024 0 0 1 5.12-24.6784 12.6464 12.6464 0 0 1 5.12 1.1264l8.6528 3.8912 3.84-8.6528a12.9024 12.9024 0 0 1 12.288-7.6288 12.6976 12.6976 0 0 1 5.12 1.1264 12.9024 12.9024 0 0 1 6.5024 17.0496l-3.84 8.6016 8.6016 3.8912a12.9024 12.9024 0 0 1 6.4512 17.0496zM161.6896-11.9296m-33.3312 0a33.3312 33.3312 0 1 1 66.6624 0 33.3312 33.3312 0 1 1-66.6624 0ZM926.2592 24.6784l-123.2384 115.3536a20.48 20.48 0 1 1-28.0064-29.9008L898.2528-5.12a20.48 20.48 0 1 1 28.0064 29.9008zM162.8672 735.5392m-33.3312 0a33.3312 33.3312 0 1 1 66.6624 0 33.3312 33.3312 0 1 1-66.6624 0ZM118.4768 725.1968m125.1328 0l552.1408 0q125.1328 0 125.1328-125.1328l0-431.3088q0-125.1328-125.1328-125.1328l-552.1408 0q-125.1328 0-125.1328 125.1328l0 431.3088q0 125.1328 125.1328 125.1328ZM768 721.92s88.4224-24.2688 92.7744-119.1424-2.2016-547.84-2.2016-547.84 60.416 5.376 61.44 175.8208-1.3824 318.464 0.9216 374.9376S877.8752 724.8384 768 721.92zM307.8144 309.9136l-189.44-151.6544a119.3472 119.3472 0 0 1 119.2448-114.688h486.0416L408.4224 308.736a79.3088 79.3088 0 0 1-100.608 1.1776zM320.8192 311.7568l252.6208-212.992H245.76c-65.28 0-117.0432 22.1184-129.4336 60.416-2.048-44.7488 34.0992-113.1008 148.9408-113.1008h457.8304l-337.92 277.7088zM690.2272 457.2672l-235.52-187.5968 269.0048-226.0992h77.6192a119.3472 119.3472 0 0 1 119.3472 119.3984v185.9584l-130.8672 107.52a79.1552 79.1552 0 0 1-99.584 0.8192zM708.1984 460.2368l153.856-128v-175.8208c0-30.72-17.9712-61.0816-58.2656-61.0816h-137.3184l69.0176-52.5312h84.1216c20.8384 0 101.2224 28.7744 101.2224 120.1152v194.56l-156.5696 121.088zM318.7712 527.5648m-84.1216 0a84.1216 84.1216 0 1 1 168.2432 0 84.1216 84.1216 0 1 1-168.2432 0ZM300.3904 602.0096s57.6-20.48 57.9584-75.2128c0.3072-46.08-34.5088-63.1296-75.4688-61.44 26.4192-29.1328 119.7056-3.2256 120.7808 55.296s-50.688 91.8528-103.2704 81.3568zM795.6992 745.6768H243.6096A145.7664 145.7664 0 0 1 97.9968 600.064V168.96q0-4.608 0.3072-9.0624v-2.2016a139.4176 139.4176 0 0 1 139.7248-134.4h563.456a140.032 140.032 0 0 1 139.8272 139.8784V600.064a145.7664 145.7664 0 0 1-145.6128 145.6128z m-552.0896-40.96h552.0896a104.7552 104.7552 0 0 0 104.6528-104.6528v-207.7696l-97.28 80.0256a100.2496 100.2496 0 0 1-125.5424 0.9728l-222.208-177.152-33.6384 28.2624a99.9936 99.9936 0 0 1-126.5664 1.4848l-156.16-125.0816v399.36a104.7552 104.7552 0 0 0 104.6528 104.5504z m0-640.6656a104.8064 104.8064 0 0 0-102.8608 85.76l179.8656 144.128a58.9824 58.9824 0 0 0 74.5984-0.8704l272.4864-229.0176z m487.7312 0l-244.1216 205.2096 215.7568 171.9808a58.9824 58.9824 0 0 0 73.984-0.5632l123.392-101.4272V168.96a104.8064 104.8064 0 0 0-104.6528-104.704zM318.7712 422.9632A104.6016 104.6016 0 1 1 214.1696 527.36a104.7552 104.7552 0 0 1 104.6016-104.3968z m0 168.2432A63.6416 63.6416 0 1 0 255.1296 527.36a63.6928 63.6928 0 0 0 63.6416 63.8464zM151.0912 361.1136A12.8 12.8 0 0 0 138.24 373.76V608.8192A97.792 97.792 0 0 0 235.9808 706.56a12.8 12.8 0 0 0 0-25.6A72.1408 72.1408 0 0 1 163.84 608.8192V373.76a12.8 12.8 0 0 0-12.7488-12.6464zM330.6496 680.96h-30.4128a12.8 12.8 0 0 0 0 25.6h30.4128a12.8 12.8 0 0 0 0-25.6zM271.0528 499.1488a12.8 12.8 0 0 0-12.544 10.24C248.4224 561.6128 282.4704 583.68 302.08 588.2368A12.8 12.8 0 0 0 307.7632 563.2c-5.4272-1.3824-31.6928-10.24-24.1152-48.9472a12.8 12.8 0 0 0-10.24-15.0016 13.3632 13.3632 0 0 0-2.3552-0.1024zM176.128 150.7328a12.8 12.8 0 0 0-8.0384 22.7328l87.3984 70.1952a12.8 12.8 0 1 0 16.0256-19.968L184.32 153.6a12.6976 12.6976 0 0 0-8.192-2.8672zM291.3792 243.2512a12.8 12.8 0 0 0-7.9872 22.9888l16.0768 12.9024a12.8 12.8 0 0 0 16.0256-19.968l-16.0768-12.9024a12.8 12.8 0 0 0-8.0384-3.0208zM546.8672 286.72a12.8 12.8 0 0 0-8.0384 22.784l87.4496 70.1952a12.8 12.8 0 1 0 16.0256-19.968l-87.4496-70.1952a12.6976 12.6976 0 0 0-7.9872-2.816zM664.576 381.3888a12.8 12.8 0 0 0-8.0384 22.784l13.6704 10.9056a12.8 12.8 0 0 0 15.872-19.9168l-13.4656-11.1616a12.9536 12.9536 0 0 0-8.0384-2.6112z"  horiz-adv-x="1024" />
      
      <glyph glyph-name="dangan" unicode="&#59100;" d="M322.56 377.2928a30.72 30.72 0 0 0 26.0096-14.3872 191.2832 191.2832 0 0 1 326.2976 0 30.72 30.72 0 0 0 26.0096 14.3872h116.8896V667.648a89.4976 89.4976 0 0 1-89.4976 89.4976H295.3216A89.4976 89.4976 0 0 1 205.7728 667.648v-290.3552zM627.456 751.6672s91.5968-14.6944 91.5968-91.5968v-329.0624h96.1024V665.6c0 53.2992-42.9568 110.9504-187.6992 86.0672zM391.1168 751.6672S299.52 736.9728 299.52 660.0704v-329.0624H203.4176V665.6c0 53.2992 42.9568 110.9504 187.6992 86.0672zM700.9792 377.2928a30.72 30.72 0 0 1-26.0096-14.3872 191.2832 191.2832 0 0 0-326.2976 0 30.72 30.72 0 0 1-26.112 14.3872H192.3072A79.6672 79.6672 0 0 1 112.64 297.6256v-183.0912a113.2544 113.2544 0 0 1 113.2544-113.2544h571.8528a113.2544 113.2544 0 0 1 113.2544 113.2544v183.0912a79.616 79.616 0 0 1-79.6672 79.6672zM256 362.496s-65.9456-6.8096-65.9456-65.9968v-194.8672c0-28.6208 11.6736-70.8608 84.0192-92.7232-84.4288 0-149.9136 23.1424-149.9136 105.0624v196.5056c-0.2048 29.3888 23.808 74.6496 131.84 52.0192zM766.976 362.496s65.9456-6.8096 65.9456-65.9968v-194.8672c0-28.6208-11.6736-70.8608-84.0192-92.7232 84.4288 0 149.9136 23.1424 149.9136 105.0624v196.5056c0 29.3888-24.0128 74.6496-131.84 52.0192zM386.304 592.6912h250.88a25.6 25.6 0 1 1 0 51.2h-250.88a25.6 25.6 0 0 1 0-51.2zM843.4688 402.176V667.648a115.2512 115.2512 0 0 1-115.0976 115.0976H295.3216A115.2512 115.2512 0 0 1 180.1728 667.648v-265.472A105.4208 105.4208 0 0 1 87.04 297.6256v-183.0912a138.9568 138.9568 0 0 1 138.8544-138.8544h571.8528a138.9568 138.9568 0 0 1 138.8544 138.8544v183.0912a105.4208 105.4208 0 0 1-93.1328 104.5504zM231.3728 667.648a64 64 0 0 0 63.9488 63.8976h433.0496a64 64 0 0 0 63.8976-63.8976v-264.7552h-91.2896a56.32 56.32 0 0 1-47.8208-26.5728A164.608 164.608 0 0 0 512 296.96a170.4448 170.4448 0 0 0-32.0512 3.0208 172.6464 172.6464 0 0 0-20.48 5.12 165.0176 165.0176 0 0 0-88.9856 71.2192c-0.768 1.2288-1.6384 2.3552-2.4576 3.4816s-1.0752 1.6384-1.6896 2.3552a56.6272 56.6272 0 0 1-43.5712 20.48H231.3728z m654.0288-552.96a87.7568 87.7568 0 0 0-87.6544-87.6544H225.8944A87.7568 87.7568 0 0 0 138.24 114.5344v183.0912a54.1184 54.1184 0 0 0 54.0672 54.0672H322.56a5.12 5.12 0 0 0 4.1984-2.1504 216.576 216.576 0 0 1 334.9504-43.5712c0.256 0 0.512 0.512 0.768 0.768 3.5328 3.4304 6.912 6.9632 10.24 10.6496a221.0816 221.0816 0 0 1 24.064 32.1536v0.3072a5.12 5.12 0 0 0 3.9424 1.8432h130.3552a54.1184 54.1184 0 0 0 54.0672-54.0672z"  horiz-adv-x="1024" />
      
      <glyph glyph-name="bofang" unicode="&#59101;" d="M518.3488 390.0416m-405.9648 0a405.9648 405.9648 0 1 1 811.9296 0 405.9648 405.9648 0 1 1-811.9296 0ZM458.0352 484.8128m-284.3648 0a284.3648 284.3648 0 1 1 568.7296 0 284.3648 284.3648 0 1 1-568.7296 0ZM430.8992 533.0432m-180.736 0a180.736 180.736 0 1 1 361.472 0 180.736 180.736 0 1 1-361.472 0ZM518.3488-41.472a431.5648 431.5648 0 1 0 431.5648 431.5136 432.0256 432.0256 0 0 0-431.5648-431.5136z m0 811.8784a380.3648 380.3648 0 1 1 380.3648-380.3648 380.7744 380.7744 0 0 1-380.3648 380.3648zM669.952 434.432L491.52 537.6a51.2 51.2 0 0 1-76.8-44.544v-205.9776a51.2 51.2 0 0 1 76.8-44.3392l178.3808 102.9632a51.2 51.2 0 0 1 0.0512 88.7296zM615.6288 465.92L491.52 537.6a51.2 51.2 0 0 1-76.8-44.544v-205.9776a51.2 51.2 0 0 1 39.424-49.7664c14.1824 163.2768 92.928 215.0912 161.4848 228.608zM465.92 209.92a76.8 76.8 0 0 0-76.8 76.8V493.056a76.8 76.8 0 0 0 115.2 66.56l178.3808-102.9632a76.8 76.8 0 0 0 0-133.12l-178.3296-102.9632A76.3392 76.3392 0 0 0 465.92 209.92z m0 308.5824a26.624 26.624 0 0 1-12.9536-3.5328A25.2416 25.2416 0 0 1 440.32 493.056v-205.9776a25.6 25.6 0 0 1 38.4-22.1696l178.3808 102.9632a25.6 25.6 0 0 1 0 44.3904L478.7712 515.2256a25.0368 25.0368 0 0 1-12.8512 3.5328z"  horiz-adv-x="1024" />
      
      <glyph glyph-name="paizhao" unicode="&#59102;" d="M781.568 677.0176h-51.2a37.4272 37.4272 0 0 0-34.6624 23.4496l-15.8208 39.3216a73.0624 73.0624 0 0 1-67.7376 46.08H421.7856a72.96 72.96 0 0 1-67.84-46.08l-15.36-38.8608a37.4784 37.4784 0 0 0-34.7648-23.6032H250.88a134.9632 134.9632 0 0 1-135.0144-135.2192v-399.36A134.9632 134.9632 0 0 1 250.88 7.5776h530.688A134.9632 134.9632 0 0 1 916.48 142.5408v399.36a134.912 134.912 0 0 1-134.912 135.1168zM224.0512 147.0464V551.8848c0 73.5232 105.1648 126.6688 105.1648 126.6688s-0.4608 2.7648-1.28 7.4752a37.2736 37.2736 0 0 0-24.1664-9.0112H250.88a134.9632 134.9632 0 0 1-135.0144-134.912v-399.36A134.9632 134.9632 0 0 1 250.88 7.5776h19.456c11.1104 0.9728 22.4768 1.536 34.048 1.536-88.2176 28.2624-80.3328 97.2288-80.3328 137.9328zM802.8672 147.0464V551.8848c0 73.5232-105.1648 126.6688-105.1648 126.6688s0.4608 2.7648 1.28 7.4752a37.2736 37.2736 0 0 1 24.1664-9.0112h52.9408a134.9632 134.9632 0 0 0 134.9632-134.912v-399.36a134.9632 134.9632 0 0 0-134.9632-134.9632h-19.456c-11.1104 0.9728-22.4768 1.536-34.048 1.536 88.1664 28.0576 80.2816 97.024 80.2816 137.728zM781.568-18.0224H250.88a160.768 160.768 0 0 0-160.5632 160.5632v399.36A160.7168 160.7168 0 0 0 250.88 702.6176h52.8896a11.7248 11.7248 0 0 1 10.9568 7.4752l15.36 38.8096a98.1504 98.1504 0 0 0 91.648 62.3104h190.6176a98.2016 98.2016 0 0 0 91.4944-61.8496l15.7696-39.3216a11.8272 11.8272 0 0 1 10.9568-7.424h51.2A160.6656 160.6656 0 0 0 942.08 542.1056v-399.36a160.7168 160.7168 0 0 0-160.512-160.768zM250.88 651.4176a109.5168 109.5168 0 0 1-109.4144-109.312v-399.36A109.5168 109.5168 0 0 1 250.88 33.1776h530.688A109.5168 109.5168 0 0 1 890.88 142.5408v399.36a109.4656 109.4656 0 0 1-109.312 109.312h-51.2a62.6688 62.6688 0 0 0-58.4192 39.5264l-15.8208 39.3216a47.2064 47.2064 0 0 1-43.9808 29.7472H421.7856a47.2064 47.2064 0 0 1-44.0832-29.952l-15.36-38.8608a62.6176 62.6176 0 0 0-58.5216-39.7824zM519.9872 351.3856m-167.3728 0a167.3728 167.3728 0 1 1 334.7456 0 167.3728 167.3728 0 1 1-334.7456 0ZM490.3936 385.28m-118.3744 0a118.3744 118.3744 0 1 1 236.7488 0 118.3744 118.3744 0 1 1-236.7488 0ZM473.9584 411.2896m-39.2192 0a39.2192 39.2192 0 1 1 78.4384 0 39.2192 39.2192 0 1 1-78.4384 0ZM519.9872 158.4128a192.9728 192.9728 0 1 0 192.9216 192.9728 193.1776 193.1776 0 0 0-192.9216-192.9728z m0 334.6944a141.7728 141.7728 0 1 1 141.7216-141.7216 141.9264 141.9264 0 0 1-141.7216 141.7216zM784.128 540.7232m-31.6416 0a31.6416 31.6416 0 1 1 63.2832 0 31.6416 31.6416 0 1 1-63.2832 0Z"  horiz-adv-x="1024" />
      
      <glyph glyph-name="shenghuoxiuxian" unicode="&#59103;" d="M475.4944 89.6h-37.5296a321.1776 321.1776 0 0 0-321.1776 321.1264V584.5504a32.4608 32.4608 0 0 0 32.4096 32.4096h615.0144a32.4096 32.4096 0 0 0 32.4096-32.4096v-174.08a321.1264 321.1264 0 0 0-321.1264-320.8704zM456.704 167.4752a256.7168 256.7168 0 0 0-256.7168 256.7168V616.96h513.4336v-192.768a256.7168 256.7168 0 0 0-256.7168-256.7168zM198.5536 603.4944v-178.1248c0-69.12 4.2496-202.9056 195.2256-250.1632a306.8928 306.8928 0 0 0-123.904 247.9616V607.1296zM830.0032 543.232h-7.7824v41.3184a58.0608 58.0608 0 0 1-58.0096 58.0096H149.1968a58.112 58.112 0 0 1-58.0096-58.0096v-174.08a347.136 347.136 0 0 1 346.7776-346.4704h37.5296a347.2384 347.2384 0 0 1 333.1584 250.88h21.3504a114.176 114.176 0 1 1 0 228.3008z m-354.5088-428.032h-37.5296a295.8848 295.8848 0 0 0-295.5776 295.5264V584.5504a6.8608 6.8608 0 0 0 6.8096 6.8096h615.0144a6.8608 6.8608 0 0 0 6.8096-6.8096v-174.08a295.8848 295.8848 0 0 0-295.5264-295.2704z m354.5088 250.88H819.2a346.368 346.368 0 0 1 2.9696 44.5952V492.032h7.7824a62.976 62.976 0 1 0 0-125.9008zM324.4544 687.9232a25.6 25.6 0 0 0-25.6 25.6V793.6a25.6 25.6 0 0 0 51.2 0v-80.0768a25.6 25.6 0 0 0-25.6-25.6zM455.68 687.9232a25.6 25.6 0 0 0-25.6 25.6V793.6a25.6 25.6 0 1 0 51.2 0v-80.0768a25.6 25.6 0 0 0-25.6-25.6zM587.1616 687.9232a25.6 25.6 0 0 0-25.6 25.6V793.6a25.6 25.6 0 0 0 51.2 0v-80.0768a25.6 25.6 0 0 0-25.6-25.6zM774.5536-35.3792H160.512a25.6 25.6 0 1 0 0 51.2h614.0416a25.6 25.6 0 0 0 0-51.2z"  horiz-adv-x="1024" />
      
      <glyph glyph-name="xinxi" unicode="&#59104;" d="M94.3616 718.848m151.04 0l536.2176 0q151.04 0 151.04-151.04l0-374.1184q0-151.04-151.04-151.04l-536.2176 0q-151.04 0-151.04 151.04l0 374.1184q0 151.04 151.04 151.04ZM694.5792 712.704s135.2192-63.3344 135.2192-155.2896v-364.9024c0-27.136 8.1408-122.112-105.8816-146.2272 76.8 0 213.4016 40.96 213.4016 177.92v348.16c0 57.3952-70.0416 170.496-242.7392 140.3392zM494.2848 416.512L244.6336 637.9008C286.72 684.288 350.6176 712.704 350.6176 712.704 168.96 742.8608 94.8736 629.76 94.8736 572.4672v-348.16C94.8736 87.04 239.0528 46.08 319.744 46.08c-120.064 24.32-111.5648 119.296-111.5648 146.432V550.3488l263.2704-241.7152 58.7776-3.0208 286.72 259.328-283.6992-152.8832a33.6896 33.6896 0 0 0-38.9632 4.4544zM944.5888 635.7504a2.8672 2.8672 0 0 1 0 0.6144c-0.3072 0.8192-0.768 1.5872-1.1264 2.4064-1.024 2.4064-2.0992 4.7616-3.2768 7.0656s-1.7408 3.4304-2.6112 5.12-1.4336 2.5088-2.0992 3.7888l-7.1168 11.2128-0.512 0.768a176.2304 176.2304 0 0 1-75.4688 62.8736l-3.6864 1.536-5.5808 2.2528c-2.816 1.024-5.6832 2.048-8.6016 2.9696l-4.0448 0.9216q-3.84 1.0752-7.68 1.9968l-3.6864 0.8704c-3.584 0.768-7.2192 1.4848-10.9056 2.048h-1.4336c-3.4304 0.512-6.8608 0.8704-10.24 1.1776h-3.1232c-3.8912 0.256-7.8336 0.4608-11.776 0.4608H245.4016c-3.9424 0-7.8336 0-11.6736-0.4096h-2.6624c-3.6864-0.3072-7.3728-0.7168-11.008-1.2288h-0.3072c-4.1984-0.6144-8.2944-1.3824-12.3392-2.2528a175.5136 175.5136 0 0 1-57.088-23.808l-0.6656-0.4096a175.7696 175.7696 0 0 1-18.5856-13.9264l-2.1504-1.8432c-2.4576-2.1504-4.8128-4.352-7.168-6.6048l-1.8432-1.8944q-3.2256-3.2768-6.2976-6.7584c-0.9728-1.024-1.8944-2.0992-2.816-3.2256-1.6384-1.9456-3.2768-3.9424-5.12-5.9904l-2.7648-3.6864c-1.7408-2.3552-3.4304-4.7104-5.12-7.168l-2.2528-3.4816c-1.5872-2.5088-3.072-5.12-4.5568-7.68-0.3072-0.6144-0.6656-1.1776-1.024-1.792-1.792-3.2768-3.3792-6.6048-5.12-10.24l-0.6144-1.2288a2.8672 2.8672 0 0 1 0-0.6144 175.36 175.36 0 0 1-15.36-72.3456v-374.1184a176.7936 176.7936 0 0 1 176.64-176.64h536.064a176.8448 176.8448 0 0 1 176.64 176.64V567.808a175.7184 175.7184 0 0 1-13.6192 67.9424zM781.568 693.248h9.7792l5.12-0.512 2.56-0.3584c1.7408 0 3.4816-0.512 5.12-0.8192l2.2016-0.4096c2.2528-0.4608 4.4544-0.9728 6.656-1.536l3.2768-0.9216 3.328-1.024 3.9936-1.3312 2.0992-0.768a126.3616 126.3616 0 0 0 62.9248-52.2752l-338.9952-286.0544a57.7024 57.7024 0 0 0-75.264 0.4096L140.1856 636.0576a7.0144 7.0144 0 0 1 0.6656 1.024c0.8192 1.2288 1.6896 2.4576 2.56 3.6352s1.28 1.8432 1.9456 2.7136 2.3552 3.0208 3.584 4.5056l1.9456 2.2528 2.7136 3.1232 1.9456 2.048 3.584 3.5328 1.3824 1.28c1.792 1.6384 3.584 3.2256 5.4784 4.7616 1.8944 1.536 3.84 2.9696 5.7856 4.4032l0.6656 0.4608a125.7472 125.7472 0 0 0 48.9984 21.0432h0.3584l6.7584 1.0752h1.5872l5.7856 0.5632H781.568z m125.44-499.5584a125.5936 125.5936 0 0 0-125.44-125.44H245.4016a125.5936 125.5936 0 0 0-125.44 125.44V567.808a124.928 124.928 0 0 0 1.1776 17.0496l227.2768-196.352-166.0928-162.4576a25.6 25.6 0 1 1 35.84-36.608l168.96 165.4784 53.76-46.3872a108.6464 108.6464 0 0 1 141.7728-0.8192l57.344 48.3328 159.8464-163.3792a25.6 25.6 0 1 1 36.5568 35.84L679.3728 389.12 906.24 580.7104a119.6032 119.6032 0 0 0 0.6656-12.9024z"  horiz-adv-x="1024" />
      
      <glyph glyph-name="yudu" unicode="&#59105;" d="M115.4048 74.5984V659.7632A28.3136 28.3136 0 0 0 128 683.4688c46.08 30.1568 209.2544 117.504 380.5184-29.44 126.6688 155.9552 327.68 65.1776 383.1296 34.2016a28.3648 28.3648 0 0 0 14.592-24.7808v-589.3632a15.0528 15.0528 0 0 0-22.9888-12.6976c-54.528 33.5872-200.2944 97.28-373.0432-37.0688C399.36 155.0336 213.5552 112.64 138.8544 62.1568a15.0528 15.0528 0 0 0-23.4496 12.4416zM219.5456 725.0432A338.944 338.944 0 0 1 128 683.4688a28.3136 28.3136 0 0 1-12.8-23.7056v-585.1648a15.0016 15.0016 0 0 1 23.4496-12.4416 288.3584 288.3584 0 0 0 80.6912 35.84zM593.4592 721.2032a236.0832 236.0832 0 0 1-84.736-67.1744 367.5648 367.5648 0 0 1-85.4528 55.7568v-620.4928a238.2848 238.2848 0 0 0 87.04-64.9728 431.9744 431.9744 0 0 0 83.0464 51.456zM892.928 688.2304a421.7344 421.7344 0 0 1-82.3296 37.4272v-629.76a275.6608 275.6608 0 0 0 74.496-34.4576 13.9776 13.9776 0 0 1 21.3504 12.6976V663.4496a28.7744 28.7744 0 0 1-13.5168 24.7808zM198.0928 704.9216v-607.5904l64.8192 12.8V737.3312l-64.8192-32.4096zM584.0384 704.9216v-607.5904l64.8704 12.8V737.3312l-64.8704-32.4096zM904.3456 710.6048c-42.2912 23.6032-253.5424 129.4336-398.5408-21.248-177.408 135.8848-343.6544 47.0528-391.68 15.36a53.76 53.76 0 0 1-24.32-45.1072v-585.0112A40.6016 40.6016 0 0 1 153.1904 40.96c68.5056 46.336 237.9264 84.1216 337.92-33.2288a25.6 25.6 0 0 1 35.2256-3.584c159.9488 124.5696 293.7856 66.304 343.9104 35.4304a40.6528 40.6528 0 0 1 61.5936 34.5088V663.4496a54.0672 54.0672 0 0 1-27.4944 47.1552zM313.5488 136.8064h-2.816a363.8272 363.8272 0 0 1-169.728-43.3152V659.7632a2.7136 2.7136 0 0 0 1.2288 2.304c41.472 27.2384 187.0336 104.8576 341.4528-20.48l1.536-558.6944c-58.0608 43.264-122.624 53.9136-171.6736 53.9136zM880.64 92.16c-62.9248 33.8432-191.9488 76.8-344.4224-18.6368L534.8864 645.12c119.5008 135.7824 307.456 41.2672 344.4736 20.48a2.816 2.816 0 0 0 1.4848-2.4576z"  horiz-adv-x="1024" />
      
      <glyph glyph-name="yonghu" unicode="&#59106;" d="M849.5104-7.2192a52.2752 52.2752 0 0 1 52.2752 52.992v4.1472A389.6832 389.6832 0 0 1 498.688 439.3984c-210.7904-7.0144-376.3712-183.5008-376.3712-394.24a52.2752 52.2752 0 0 1 52.224-52.2752zM629.1456 409.088s196.4544-109.9776 182.0672-416.4608c85.7088 0 96.3072 44.7488 96.3072 44.7488s16.6912 285.184-278.3744 371.712zM423.8848 430.08c-174.592-6.7584-311.808-176.1792-311.808-378.5728 0-27.6992 19.3536-50.176 43.3152-50.176h24.5248l22.7328 15.36c45.2608 399.0016 381.8496 398.336 381.8496 398.336l10.24-0.3072c-47.8208 29.5936-112.1792 17.8688-170.8544 15.36zM849.5104-32.8192H174.5408a77.9264 77.9264 0 0 0-77.824 77.8752 421.2224 421.2224 0 0 0 116.1728 291.2256 414.4128 414.4128 0 0 0 714.3936-286.3616v-3.7888a77.8752 77.8752 0 0 0-77.8752-78.9504zM512 414.0544c-4.1984 0-8.3968 0-12.5952-0.256-193.8432-6.4512-351.5904-171.8784-351.5904-368.64a26.6752 26.6752 0 0 1 26.624-26.6752h675.072a26.6752 26.6752 0 0 1 26.6752 27.0336v4.1472A364.1856 364.1856 0 0 1 512 414.0544zM512 110.0288a25.6 25.6 0 0 0-25.6 25.6v124.6208a25.6 25.6 0 0 0 51.2 0v-124.6208a25.6 25.6 0 0 0-25.6-25.6zM512 591.6672m-188.1088 0a188.1088 188.1088 0 1 1 376.2176 0 188.1088 188.1088 0 1 1-376.2176 0ZM490.2912 625.92m-129.792 0a129.792 129.792 0 1 1 259.584 0 129.792 129.792 0 1 1-259.584 0ZM467.5072 671.4368m-60.0064 0a60.0064 60.0064 0 1 1 120.0128 0 60.0064 60.0064 0 1 1-120.0128 0ZM512 377.9584a213.7088 213.7088 0 1 0 213.7088 213.7088A213.9648 213.9648 0 0 0 512 377.9584z m0 376.2176a162.5088 162.5088 0 1 1 162.5088-162.5088A162.7136 162.7136 0 0 1 512 754.176z"  horiz-adv-x="1024" />
      
      <glyph glyph-name="tupian1" unicode="&#59107;" d="M101.6832 749.3632m131.1744 0l562.0224 0q131.1744 0 131.1744-131.1744l0-459.1104q0-131.1744-131.1744-131.1744l-562.0224 0q-131.1744 0-131.1744 131.1744l0 459.1104q0 131.1744 131.1744 131.1744ZM340.3264 744.4992s-116.9408-23.3984-116.9408-122.88v-192.256L108.1344 323.072V597.4528C108.1344 660.0704 117.76 768 340.3264 744.4992zM689.7152 744.2432s115.2-24.8832 115.2-131.0208v-205.056l113.6128-113.3568V587.4688c0 66.7648-9.6256 181.7088-228.8128 156.7744zM295.3216 743.7312s-87.04-36.9664-87.04-92.16-2.56-229.9392-2.56-229.9392L282.624 502.4768V655.36c0 33.9456 7.6288 64.1024 56.7296 84.4288 3.6864 12.2368-44.032 3.9424-44.032 3.9424zM926.0544 294.6048l-104.3968 83.0464a80.128 80.128 0 0 1-105.6256-5.12l-356.608-344.576h435.456a131.1744 131.1744 0 0 1 131.1744 131.1232zM689.7152 37.4272s115.2 24.9344 115.2 131.072V373.76l113.6128-63.488v-116.0192c0-66.7648-9.6256-181.76-228.8128-156.8256zM794.88 2.3552h-435.2a25.6 25.6 0 0 0-18.0224 43.7248l356.5568 344.6272a106.0864 106.0864 0 0 0 139.4176 6.7072l104.448-82.7904a25.6 25.6 0 0 0 9.6768-20.0192v-135.5264a156.928 156.928 0 0 0-156.8768-156.7232z m-372.1216 51.2h372.1216a105.6768 105.6768 0 0 1 105.5744 105.5232v123.1872l-94.72 75.3664a54.7328 54.7328 0 0 1-71.936-3.4816zM399.9744 493.056a80.2304 80.2304 0 0 1-115.1488 2.56l-183.1424-180.7872v-155.7504a131.1744 131.1744 0 0 1 131.1744-131.1232h562.0224a132.096 132.096 0 0 1 32.3584 3.9936zM340.3264 37.2224s-116.9408 23.3472-116.9408 122.88V429.3632l-115.2512-105.728V184.32c0-62.6688 9.6256-170.4448 232.192-147.0976zM295.3216 43.52s-87.04 10.8032-87.04 80.896c0 55.04-2.56 304.9472-2.56 304.9472l76.9024 54.272v-351.8976c0-33.9456 7.6288-64.1024 56.7296-84.4288 3.6864-12.0832-44.032-3.7888-44.032-3.7888zM632.7296 542.5152m-74.6496 0a74.6496 74.6496 0 1 1 149.2992 0 74.6496 74.6496 0 1 1-149.2992 0ZM621.9776 560.5888m-25.1904 0a25.1904 25.1904 0 1 1 50.3808 0 25.1904 25.1904 0 1 1-50.3808 0ZM794.88 774.9632H232.8576a156.928 156.928 0 0 1-156.7744-156.7744v-459.0592a156.928 156.928 0 0 1 156.7744-156.7232h573.7472c2.1504 0 4.3008 0.3584 6.4 0.6144l2.9696 0.3584 6.2464 0.9728 2.7648 0.512c2.4064 0.4608 4.7616 0.9728 7.168 1.5872l1.3824 0.3072a157.0304 157.0304 0 0 1 117.76 151.9104V618.1888a156.928 156.928 0 0 1-156.416 156.7744zM232.8576 53.5552a105.6768 105.6768 0 0 0-105.5744 105.5744V304.128l175.5136 173.2608a54.6304 54.6304 0 0 0 78.3872-1.7408l391.168-422.0928z m667.5968 105.5744A105.728 105.728 0 0 0 834.816 61.44L418.7136 510.464a105.8304 105.8304 0 0 1-151.9104 3.3792l-139.52-137.7792V618.1888a105.6768 105.6768 0 0 0 105.5744 105.5744h562.0224a105.6768 105.6768 0 0 0 105.5744-105.5744zM632.7296 642.7648A100.2496 100.2496 0 1 1 732.928 542.72a100.352 100.352 0 0 1-100.1984 100.0448z m0-149.2992a49.0496 49.0496 0 1 0 48.9984 49.2544 49.1008 49.1008 0 0 0-48.9984-49.2544z"  horiz-adv-x="1024" />
      
      <glyph glyph-name="yundong" unicode="&#59108;" d="M517.12 379.2896m-399.5648 0a399.5648 399.5648 0 1 1 799.1296 0 399.5648 399.5648 0 1 1-799.1296 0ZM481.7408 414.6688m-341.504 0a341.504 341.504 0 1 1 683.008 0 341.504 341.504 0 1 1-683.008 0ZM428.4928 517.6832m-219.2896 0a219.2896 219.2896 0 1 1 438.5792 0 219.2896 219.2896 0 1 1-438.5792 0ZM209.92 633.6512a399.36 399.36 0 0 1 0-509.5424 289.5872 289.5872 0 0 1 0 509.5424zM193.024 638.976C146.2272 568.32 118.1184 477.696 118.1184 378.88c0-97.28 27.392-187.0336 73.0624-257.1776a445.7472 445.7472 0 0 1 43.6224 43.2128C141.568 385.28 244.736 546.56 261.12 569.9072A256.9728 256.9728 0 0 1 193.024 638.976zM669.3376 378.88A289.3824 289.3824 0 0 1 824.32 122.624 399.36 399.36 0 0 1 824.32 634.88a289.3824 289.3824 0 0 1-154.9824-256zM850.688 559.4112A409.2928 409.2928 0 0 1 806.5536 634.88c-81.5616-48.4864-137.216-144.9984-137.216-256.256 0-107.1104 51.6096-200.5504 128.256-250.624l30.3616 33.536s-94.8736 84.4288-94.8736 217.088 117.6064 180.7872 117.6064 180.7872zM843.776 651.5712a26.5728 26.5728 0 0 1-3.1744 3.1744A424.96 424.96 0 0 1 167.3216 138.24c1.0752-1.6384 2.2528-3.1744 3.3792-4.8128 2.3552-3.2768 4.6592-6.5536 7.0656-9.728 3.9936-5.12 8.1408-10.5984 12.3904-15.7696a17.664 17.664 0 0 1 1.3312-1.4336 424.3456 424.3456 0 0 1 647.168-4.7616 24.2688 24.2688 0 0 1 5.12 4.608 424.96 424.96 0 0 1 0 545.3824z m46.08-246.6816H696.32a263.168 263.168 0 0 0 121.1904 196.8128 371.5072 371.5072 0 0 0 72.6016-196.8128z m0-51.2a372.0192 372.0192 0 0 0-72.96-197.376A263.0144 263.0144 0 0 0 696.32 353.6896z m-105.9328 287.2832A314.0608 314.0608 0 0 1 645.12 404.8896h-102.4V752.2304a372.8896 372.8896 0 0 0 241.2032-111.2576zM491.52 752.2304v-347.3408H386.2528a314.9312 314.9312 0 0 1-137.1136 234.8032A372.6848 372.6848 0 0 0 491.52 752.2304zM215.04 159.0272a374.6304 374.6304 0 0 0-70.5536 194.56H334.848a263.8848 263.8848 0 0 0-118.6816-196.0448z m-70.5024 245.76a374.5792 374.5792 0 0 0 71.68 195.2256 263.5776 263.5776 0 0 0 118.528-195.1232z m104.9088-286.72a314.8288 314.8288 0 0 1 136.704 235.52H491.52v-347.392a372.8896 372.8896 0 0 0-241.92 112.1792zM542.72 6.2976v347.392h102.0416a314.3168 314.3168 0 0 1 138.5984-236.544 372.736 372.736 0 0 0-240.64-110.848z"  horiz-adv-x="1024" />
      
      <glyph glyph-name="zixun" unicode="&#59109;" d="M702.0032-1.024h-462.848a107.52 107.52 0 0 0-107.52 107.52V638.3104a120.7296 120.7296 0 0 0 120.5248 120.7296h329.1136a120.7296 120.7296 0 0 0 120.7296-120.7296zM511.3344 751.6672s96.1024-41.8304 96.1024-119.8592v-625.3568h101.7856V624.9984c0 75.776-56.5248 135.7312-197.888 126.6688zM311.7568 748.288s-89.3952-23.7568-89.3952-113.1008v-521.2672c0-41.8816 13.3632-99.5328 73.984-111.9744-78.1312 0-170.5984-18.0736-170.5984 116.48V646.5024c0 56.5248 60.6208 130.048 186.0096 101.7856zM798.72-1.024h-96.256V491.9296h119.1424a77.5168 77.5168 0 0 0 77.4656-77.4656v-315.0848A100.4032 100.4032 0 0 0 798.72-1.024zM770.048 483.6864S828.8768 476.16 828.8768 424.96v-315.0848c0-35.4304-3.0208-87.4496-73.1136-99.5328 82.8928 0 135.68 9.7792 135.68 110.7968V434.688c0 38.4512-66.3552 58.0096-121.3952 48.9984zM821.7088 517.5296h-94.1056V638.3104a146.4832 146.4832 0 0 1-146.3296 146.3296H252.16a146.4832 146.4832 0 0 1-146.3296-146.3296v-531.6096a133.4784 133.4784 0 0 1 133.12-133.12H798.72a126.1568 126.1568 0 0 1 125.952 126.0032v314.88a103.168 103.168 0 0 1-102.9632 103.0656z m-145.3056-492.9536h-437.248a82.2272 82.2272 0 0 0-81.92 81.92V638.3104a95.232 95.232 0 0 0 94.9248 95.1296h329.1136a95.232 95.232 0 0 0 95.1296-95.1296z m197.1712 74.8032A74.8544 74.8544 0 0 0 798.72 24.576h-70.656V466.3296h93.5424a51.968 51.968 0 0 0 51.8656-51.8656zM551.68 442.0608H293.9392a25.6 25.6 0 0 0 0 51.2h257.7408a25.6 25.6 0 0 0 0-51.2zM551.68 225.28H293.9392a25.6 25.6 0 0 0 0 51.2h257.7408a25.6 25.6 0 0 0 0-51.2z"  horiz-adv-x="1024" />
      
      <glyph glyph-name="bofang1" unicode="&#59110;" d="M518.3488-51.712a441.8048 441.8048 0 1 0 441.8048 441.7536 442.2656 442.2656 0 0 0-441.8048-441.7536z m0 811.8784a370.1248 370.1248 0 1 1 370.1248-370.1248 370.5344 370.5344 0 0 1-370.1248 370.1248zM465.92 199.68a87.4496 87.4496 0 0 0-87.04 87.04V493.056A87.04 87.04 0 0 0 509.4912 568.32l178.3808-102.9632a87.04 87.04 0 0 0 0-150.784l-178.3808-102.8608A86.6816 86.6816 0 0 0 465.92 199.68z m0 308.5824a15.6672 15.6672 0 0 1-7.7312-2.0992A15.0016 15.0016 0 0 1 450.56 493.056v-205.9776a15.36 15.36 0 0 1 23.04-13.312l178.3808 102.9632a15.36 15.36 0 0 1 0 26.624L473.6512 506.368a15.36 15.36 0 0 1-7.7312 2.0992z"  horiz-adv-x="1024" />
      
      <glyph glyph-name="chakansousuo" unicode="&#59111;" d="M696.32-54.2208H270.3872c-88.0128 0-159.5904 67.9424-159.5904 151.4496V669.952c0 83.5584 71.68 151.5008 159.5904 151.5008h490.0352c88.0128 0 159.5904-67.9424 159.5904-151.5008v-398.2848a35.84 35.84 0 0 0-71.68 0V669.952c0 44.032-39.424 79.8208-87.9104 79.8208H270.3872c-48.4864 0-87.9104-35.84-87.9104-79.8208V97.28c0-43.9808 39.424-79.7696 87.9104-79.7696H696.32a35.84 35.84 0 0 0 0-71.68zM867.0208 64.3584l-83.1488 75.3152a203.52 203.52 0 1 1-167.936-88.0128 209.0496 209.0496 0 0 1 25.6 1.5872 202.5472 202.5472 0 0 1 91.648 35.4816l85.504-77.5168a35.84 35.84 0 0 1 48.128 53.1456z m-234.24 60.0064a132.0448 132.0448 0 1 0-32.8704 262.0416 128.7168 128.7168 0 0 0 16.5376 1.0752 132.096 132.096 0 0 0 16.3328-263.1168zM716.288 564.224H302.3872a35.84 35.84 0 0 0 0 71.68h413.9008a35.84 35.84 0 0 0 0-71.68zM386.6624 399.7184H304.128a35.84 35.84 0 0 0 0 71.68h82.5344a35.84 35.84 0 0 0 0-71.68z"  horiz-adv-x="1024" />
      
      <glyph glyph-name="dangan1" unicode="&#59112;" d="M637.3888 582.4512h-250.88a35.84 35.84 0 0 0 0 71.68h250.88a35.84 35.84 0 1 0 0-71.68zM853.7088 410.9824V667.648a125.4912 125.4912 0 0 1-125.3376 125.3376H295.3216A125.4912 125.4912 0 0 1 169.9328 667.648v-256.6656A115.712 115.712 0 0 1 76.8 297.6256v-183.0912a149.248 149.248 0 0 1 149.0944-149.0944h571.8528a149.248 149.248 0 0 1 149.0944 149.0944v183.0912a115.712 115.712 0 0 1-93.1328 113.3568zM241.6128 667.648a53.7088 53.7088 0 0 0 53.7088 53.6576h433.0496a53.7088 53.7088 0 0 0 53.6576-53.6576v-254.5152h-81.0496a70.2976 70.2976 0 0 1-8.704-0.5632 66.56 66.56 0 0 1-47.872-30.72A154.4704 154.4704 0 0 0 512 307.2a157.7984 157.7984 0 0 0-30.0544 2.8672 154.4192 154.4192 0 0 0-102.4 71.68 61.44 61.44 0 0 1-3.9936 5.5808c-0.3072 0.4608-0.5632 0.9216-0.9216 1.3824s-1.6384 1.7408-2.4064 2.6112a66.9184 66.9184 0 0 1-40.5504 21.3504 70.2976 70.2976 0 0 1-8.704 0.5632H241.6128z m633.5488-552.96a77.4656 77.4656 0 0 0-77.4144-77.4144H225.8944A77.4656 77.4656 0 0 0 148.48 114.5344v183.0912a43.8784 43.8784 0 0 0 43.8272 43.8272h127.488a227.1232 227.1232 0 0 1 384 0h127.488a43.8784 43.8784 0 0 0 43.8272-43.8272z"  horiz-adv-x="1024" />
      
      <glyph glyph-name="qianbao" unicode="&#59113;" d="M768-28.7744H242.8416a159.488 159.488 0 0 0-159.3344 159.3344v465.92a35.84 35.84 0 0 0 35.84 35.84H819.2a126.1568 126.1568 0 0 0 126.208-125.952V148.48A177.408 177.408 0 0 0 768-28.7744zM155.1872 560.6912v-430.08a87.7568 87.7568 0 0 1 87.6544-87.6544H768A105.6768 105.6768 0 0 1 873.728 148.48V506.368A54.3744 54.3744 0 0 1 819.2 560.6912zM835.8912 560.6912H119.3472a35.84 35.84 0 0 0-35.84 35.84v40.4992a148.48 148.48 0 0 0 148.48 148.48h502.6816a137.4208 137.4208 0 0 0 137.2672-137.2672v-51.712a35.84 35.84 0 0 0-36.0448-35.84z m-680.704 71.68h645.12v15.6672a65.6896 65.6896 0 0 1-65.5872 65.5872H231.7824a76.8 76.8 0 0 1-76.8-76.8zM685.4656 192.8704a122.88 122.88 0 1 0 122.88 122.88 123.1872 123.1872 0 0 0-122.88-122.88z m0 174.3872a51.2 51.2 0 1 1 51.2-51.2 51.2 51.2 0 0 1-51.2 51.2z"  horiz-adv-x="1024" />
      
      <glyph glyph-name="jifen" unicode="&#59114;" d="M512-62.4128a444.8768 444.8768 0 1 0 444.8768 444.8768A445.44 445.44 0 0 0 512-62.4128z m0 818.0736a373.1968 373.1968 0 1 1 373.1968-373.1968A373.76 373.76 0 0 1 512 755.6608zM664.32 337.92H552.448V392.3968h111.872a35.84 35.84 0 0 1 0 71.68h-72.3456l56.8832 61.9008a35.84 35.84 0 1 1-52.7872 48.4864L516.608 487.9872 435.2 574.7712a35.84 35.84 0 0 1-52.2752-49.0496l57.8048-61.44h-71.68a35.84 35.84 0 0 1 0-71.68H480.768V337.92H368.896a35.84 35.84 0 0 1 0-71.68H480.768v-87.04a35.84 35.84 0 0 1 71.68 0v87.04h111.872a35.84 35.84 0 0 1 0 71.68z"  horiz-adv-x="1024" />
      
      <glyph glyph-name="shenghuoxiuxian1" unicode="&#59115;" d="M324.4544 677.6832a35.84 35.84 0 0 0-35.84 35.84V793.6a35.84 35.84 0 0 0 71.68 0v-80.0768a35.84 35.84 0 0 0-35.84-35.84zM455.68 677.6832a35.84 35.84 0 0 0-35.84 35.84V793.6a35.84 35.84 0 1 0 71.68 0v-80.0768a35.84 35.84 0 0 0-35.84-35.84zM587.1616 677.6832a35.84 35.84 0 0 0-35.84 35.84V793.6a35.84 35.84 0 0 0 71.68 0v-80.0768a35.84 35.84 0 0 0-35.84-35.84zM832.4608 553.4208v31.1296a68.352 68.352 0 0 1-68.2496 68.2496H149.1968a68.352 68.352 0 0 1-68.2496-68.2496v-174.08a357.4272 357.4272 0 0 1 357.0176-356.7104h37.5296a357.5808 357.5808 0 0 1 340.8896 250.88h13.6192a124.3648 124.3648 0 1 1 2.4576 248.7296zM475.4944 125.44h-37.5296a285.6448 285.6448 0 0 0-285.3376 285.2864V581.12h608.1536v-170.3936a285.6448 285.6448 0 0 0-285.2864-285.2864z m355.2768 250.88c1.0752 11.3152 1.6896 22.784 1.6896 34.3552V481.6896a52.6848 52.6848 0 1 0-1.6896-105.3184zM774.5536 26.0608H160.512a35.84 35.84 0 1 1 0-71.68h614.0416a35.84 35.84 0 0 1 0 71.68z"  horiz-adv-x="1024" />
      
      <glyph glyph-name="paizhao1" unicode="&#59116;" d="M781.568-28.2624H250.88a171.008 171.008 0 0 0-170.8032 170.8032v399.36A171.008 171.008 0 0 0 250.88 712.8576h52.8896a1.6384 1.6384 0 0 1 1.4336 0.9728l15.36 38.8608a108.2368 108.2368 0 0 0 101.2224 68.7616h190.5664a108.4416 108.4416 0 0 0 101.0176-68.3008l15.7696-39.3216a1.6384 1.6384 0 0 1 1.4336-0.9728h51.2A170.9568 170.9568 0 0 0 952.32 542.1056v-399.36a171.008 171.008 0 0 0-170.752-171.008zM250.88 641.1776a99.2256 99.2256 0 0 1-99.1744-99.072v-399.36A99.2768 99.2768 0 0 1 250.88 43.4176h530.688A99.2256 99.2256 0 0 1 880.64 142.5408v399.36a99.1744 99.1744 0 0 1-99.072 99.072h-51.2a72.96 72.96 0 0 0-67.9424 46.08l-15.7696 39.3216a37.0688 37.0688 0 0 1-34.5088 23.3472H421.7856a37.0176 37.0176 0 0 1-34.56-23.5008l-15.36-38.8608a72.8064 72.8064 0 0 0-68.0448-46.08zM519.9872 148.1728a203.2128 203.2128 0 1 0 203.1616 203.2128 203.4176 203.4176 0 0 0-203.1616-203.2128z m0 334.6944a131.5328 131.5328 0 1 1 131.4816-131.4816 131.6352 131.6352 0 0 1-131.4816 131.4816zM776.7552 534.528m-49.0496 0a49.0496 49.0496 0 1 1 98.0992 0 49.0496 49.0496 0 1 1-98.0992 0Z"  horiz-adv-x="1024" />
      
      <glyph glyph-name="pinglun" unicode="&#59117;" d="M518.8608-31.2832a79.7696 79.7696 0 0 0-57.1904 23.808L353.28 103.4752a7.8336 7.8336 0 0 1-5.5808 2.3552H215.7568a159.1296 159.1296 0 0 0-159.744 158.1056V638.9248a159.1296 159.1296 0 0 0 159.744 158.1056h598.016a159.0784 159.0784 0 0 0 159.744-158.1056v-374.9888a159.0784 159.0784 0 0 0-159.744-158.1056h-111.2576a7.7824 7.7824 0 0 1-5.12-2.048L572.8768-10.24a79.6672 79.6672 0 0 0-54.016-21.0432zM215.7568 726.1184a87.7568 87.7568 0 0 1-88.064-87.04v-374.9888a87.7056 87.7056 0 0 1 88.064-87.04h131.7888A80.2816 80.2816 0 0 0 404.48 152.832l108.544-110.9504a7.8336 7.8336 0 0 1 10.9056-0.3072l124.3136 114.176a79.7696 79.7696 0 0 0 54.1184 21.0432h111.2576a87.6544 87.6544 0 0 1 88.064 87.04V638.9248a87.7056 87.7056 0 0 1-88.064 87.04zM696.32 530.944H343.04a35.4816 35.4816 0 1 0 0 70.9632h353.28a35.4816 35.4816 0 1 0 0-70.9632zM696.32 285.9008H343.04a35.4816 35.4816 0 1 0 0 70.9632h353.28a35.4816 35.4816 0 1 0 0-70.9632z"  horiz-adv-x="1024" />
      
    </font>
</defs>
</svg>
